<svg width="200" height="200" viewBox="0 0 200 200" fill="none" xmlns="http://www.w3.org/2000/svg">
<path d="M76.6798 154.017C70.2842 155.861 64.9147 155.41 60.5714 152.666C56.2864 149.816 53.1277 144.865 51.0953 137.813L33.6186 77.1776C33.0277 75.1278 33.1117 73.4162 33.8704 72.0431C34.6291 70.6699 35.9924 69.6997 37.9603 69.1325C39.9282 68.5653 41.5987 68.6611 42.9719 69.4198C44.427 70.1549 45.45 71.5473 46.0409 73.5972L63.3049 133.495C64.4865 137.595 66.1927 140.433 68.4235 142.01C70.7126 143.482 73.456 143.757 76.6539 142.835C77.3918 142.623 78.0478 142.433 78.6218 142.268C79.1721 142.021 79.7224 141.773 80.2728 141.526C81.2331 141.16 82.0127 141.246 82.6118 141.784C83.1872 142.24 83.7467 143.411 84.2902 145.297C84.7865 147.019 84.8075 148.478 84.3532 149.674C83.8752 150.789 82.8517 151.706 81.2826 152.424C80.5683 152.719 79.8012 152.985 78.9812 153.221C78.1849 153.539 77.4178 153.805 76.6798 154.017Z" fill="white"/>
<path d="M120.539 127.152C114.224 127.152 108.763 125.829 104.155 123.184C99.632 120.539 96.0907 116.784 93.5307 111.92C90.9707 107.056 89.6907 101.339 89.6907 94.768C89.6907 89.7333 90.416 85.2533 91.8667 81.328C93.3174 77.4027 95.3654 74.032 98.0107 71.216C100.741 68.3147 103.984 66.1387 107.739 64.688C111.579 63.152 115.845 62.384 120.539 62.384C126.768 62.384 132.144 63.7067 136.667 66.352C141.275 68.9973 144.859 72.752 147.419 77.616C149.979 82.3947 151.259 88.112 151.259 94.768C151.259 99.7173 150.533 104.197 149.083 108.208C147.632 112.219 145.541 115.632 142.811 118.448C140.165 121.264 136.923 123.44 133.083 124.976C129.328 126.427 125.147 127.152 120.539 127.152ZM120.539 117.168C124.037 117.168 127.109 116.315 129.755 114.608C132.4 112.901 134.448 110.384 135.899 107.056C137.435 103.728 138.203 99.632 138.203 94.768C138.203 87.4293 136.581 81.8827 133.339 78.128C130.096 74.3733 125.829 72.496 120.539 72.496C116.955 72.496 113.84 73.3493 111.195 75.056C108.549 76.6773 106.459 79.152 104.923 82.48C103.472 85.808 102.747 89.904 102.747 94.768C102.747 102.021 104.368 107.568 107.611 111.408C110.853 115.248 115.163 117.168 120.539 117.168Z" fill="white"/>
<path d="M76.8024 143.567C83.0484 139.558 89.6215 136.635 96.5216 134.798C103.486 133.025 110.52 132.115 117.624 132.068C122.36 132.037 127.067 132.391 131.743 133.128C136.42 133.866 141.004 135.052 145.495 136.686C150.05 138.321 154.416 140.436 158.593 143.033C159.749 143.729 160.459 144.653 160.723 145.803C161.051 147.017 160.994 148.137 160.553 149.164C160.112 150.255 159.285 151.061 158.072 151.581C156.924 152.1 155.451 152.046 153.655 151.417C149.549 149.908 145.509 148.655 141.535 147.657C137.624 146.722 133.716 146.012 129.808 145.525C125.902 145.103 121.868 144.905 117.708 144.932C113.548 144.959 109.518 145.242 105.617 145.779C101.717 146.316 97.818 147.11 93.9208 148.159C90.0236 149.209 85.9996 150.451 81.8489 151.886C80.0611 152.538 78.5895 152.612 77.4342 152.107C76.2149 151.603 75.3777 150.809 74.9226 149.724C74.4679 148.702 74.3966 147.583 74.7087 146.365C74.9571 145.211 75.6551 144.279 76.8024 143.567Z" fill="white"/>
</svg>
