<svg width="1000" height="1000" viewBox="0 0 1000 1000" fill="none" xmlns="http://www.w3.org/2000/svg">
<g clip-path="url(#clip0_8_59)">
<path d="M375.498 284L496.499 69.9883L742.998 78L871.499 284.002L749.999 500L624.499 284.002L375.498 284Z" fill="#7894FF"/>
<path d="M375 716.5L625.5 716L750.001 500L877.198 712.5L746.5 921L502.198 932.512L375 716.5Z" fill="#F0A202"/>
<path d="M13 500.001L125 285.001L375.5 284.001L250 500.001L375.5 716.501L128 713.501L13 500.001Z" fill="#FF4F2D"/>
<path d="M378.117 711.739L256.004 500.232L378.117 288.726H622.344L744.457 500.232L622.344 711.739H378.117Z" stroke="black" stroke-width="10"/>
<path d="M375 717L128.5 713L223.496 876.755L228.908 885.796L235.796 894.838L244.16 903.88L252.032 910.41L260.888 916.438L269.252 920.958L272.204 921.963L274.172 922.968L276.14 923.972L280.076 924.977L283.028 925.982L285.98 926.986L290.9 927.991L296.804 928.995L306.152 930H500L375 717Z" fill="#E8E8E8"/>
<path d="M750.5 499.997L876.5 712.5L970.484 549.725L975.429 540.409L979.61 529.801L983.027 517.903L984.547 507.708L985.128 496.906L984.672 487.3L984.005 484.208L983.847 481.978L983.689 479.747L982.513 475.796L981.846 472.705L981.179 469.613L979.493 464.801L977.298 459.128L973.321 450.443L871 284L750.5 499.997Z" fill="#7AC74F"/>
<path d="M374.997 284.001L496.5 70.4992L310.325 67.575L299.782 67.8642L288.499 69.4509L276.475 72.335L266.872 76.0276L257.21 80.8335L249.1 85.9514L246.75 88.0498L244.892 89.2832L243.035 90.5167L240.191 93.48L237.84 95.5783L235.489 97.6767L232.151 101.505L228.319 106.198L222.759 113.918L125.5 284.999L374.997 284.001Z" fill="#9B7FDF"/>
<path d="M33.1976 547.5C16.2275 518.107 16.2275 481.893 33.1976 452.5L225.463 119.487C242.433 90.0942 273.795 71.9873 307.735 71.9873H692.265C726.205 71.9873 757.567 90.0942 774.537 119.487L966.802 452.5C983.773 481.893 983.773 518.107 966.802 547.5L774.537 880.513C757.567 909.906 726.205 928.013 692.265 928.013H307.735C273.795 928.013 242.433 909.906 225.463 880.513L33.1976 547.5Z" stroke="black" stroke-width="10"/>
<line x1="378.37" y1="713.57" x2="497.37" y2="927.57" stroke="black" stroke-width="10"/>
<line x1="374.861" y1="713" x2="130" y2="713" stroke="black" stroke-width="10"/>
<line x1="374.861" y1="289" x2="130" y2="289" stroke="black" stroke-width="10"/>
<line x1="499.358" y1="72.4513" x2="373.358" y2="296.451" stroke="black" stroke-width="10"/>
<line x1="869.358" y1="278.451" x2="743.358" y2="502.451" stroke="black" stroke-width="10"/>
<line x1="743.212" y1="497.306" x2="876.212" y2="705.306" stroke="black" stroke-width="10"/>
</g>
<defs>
<clipPath id="clip0_8_59">
<rect width="1000" height="1000" fill="white"/>
</clipPath>
</defs>
</svg>
